<?xml version="1.0" standalone="no"?>
<!DOCTYPE svg PUBLIC "-//W3C//DTD SVG 20010904//EN"
 "http://www.w3.org/TR/2001/REC-SVG-20010904/DTD/svg10.dtd">
<svg version="1.0" xmlns="http://www.w3.org/2000/svg"
 width="90.000000pt" height="90.000000pt" viewBox="0 0 90.000000 90.000000"
 preserveAspectRatio="xMidYMid meet">
<metadata>
Created by potrace 1.11, written by Peter Selinger 2001-2013
</metadata>
<g transform="translate(0.000000,90.000000) scale(0.100000,-0.100000)"
fill="#000000" stroke="none">
<path d="M659 839 c-141 -21 -167 -85 -164 -414 1 -203 2 -212 27 -266 34 -75
76 -101 168 -105 136 -6 199 60 206 216 l4 80 -50 0 c-28 0 -50 -3 -51 -7 0
-5 -2 -33 -3 -63 -1 -30 -6 -69 -10 -86 -18 -80 -152 -73 -174 9 -14 50 -12
455 3 497 21 61 100 80 150 37 24 -20 27 -30 29 -97 l2 -75 53 -3 53 -3 -5 75
c-6 91 -36 160 -78 182 -42 21 -107 31 -160 23z"/>
<path d="M0 449 l0 -389 45 0 45 0 0 263 1 262 28 -60 c15 -33 65 -151 112
-263 l84 -202 35 2 35 3 0 385 0 385 -45 2 -45 3 0 -254 c0 -140 -3 -252 -7
-250 -5 3 -8 10 -8 15 0 6 -8 29 -19 52 -10 23 -33 76 -51 117 -17 41 -37 89
-45 105 -7 17 -30 69 -50 118 -21 48 -40 88 -44 88 -3 1 -21 3 -38 5 l-33 2 0
-389z"/>
</g>
</svg>
